<?xml version="1.0" encoding="UTF-8" standalone="no"?>
<!-- Created with Inkscape (http://www.inkscape.org/) -->

<svg
   xmlns:dc="http://purl.org/dc/elements/1.1/"
   xmlns:cc="http://creativecommons.org/ns#"
   xmlns:rdf="http://www.w3.org/1999/02/22-rdf-syntax-ns#"
   xmlns:svg="http://www.w3.org/2000/svg"
   xmlns="http://www.w3.org/2000/svg"
   xmlns:sodipodi="http://sodipodi.sourceforge.net/DTD/sodipodi-0.dtd"
   xmlns:inkscape="http://www.inkscape.org/namespaces/inkscape"
   width="192"
   height="192"
   viewBox="0 0 192 192"
   id="svg3355"
   version="1.1"
   inkscape:version="0.91 r13725"
   sodipodi:docname="icon.svg">
  <defs
     id="defs3357" />
  <sodipodi:namedview
     id="base"
     pagecolor="#ffffff"
     bordercolor="#666666"
     borderopacity="1.0"
     inkscape:pageopacity="0.0"
     inkscape:pageshadow="2"
     inkscape:zoom="3.4988737"
     inkscape:cx="96.330795"
     inkscape:cy="107.81054"
     inkscape:document-units="px"
     inkscape:current-layer="layer1"
     showgrid="false"
     units="px"
     inkscape:window-width="1061"
     inkscape:window-height="800"
     inkscape:window-x="133"
     inkscape:window-y="46"
     inkscape:window-maximized="0" />
  <metadata
     id="metadata3360">
    <rdf:RDF>
      <cc:Work
         rdf:about="">
        <dc:format>image/svg+xml</dc:format>
        <dc:type
           rdf:resource="http://purl.org/dc/dcmitype/StillImage" />
        <dc:title />
      </cc:Work>
    </rdf:RDF>
  </metadata>
  <g
     inkscape:label="Layer 1"
     inkscape:groupmode="layer"
     id="layer1"
     transform="translate(0,-860.36216)">
    <rect
       style="fill:#1a1a1a"
       id="rect3516"
       width="192.90074"
       height="193.49452"
       x="0.076754302"
       y="859.57404" />
    <ellipse
       style="fill:#a05a2c"
       id="path3413"
       cx="96.080185"
       cy="1021.8163"
       rx="64.97908"
       ry="17.216684" />
    <g
       id="g3415"
       transform="translate(-1.1107536,6.6645214)">
      <path
         inkscape:connector-curvature="0"
         d="m 64.922852,915.89988 c -0.257496,1.42349 -0.44801,2.85715 -0.687765,4.28352 -0.230791,1.34798 -0.32459,2.7127 -0.477522,4.0705 -0.171042,1.4869 -0.238232,2.98168 -0.374092,4.47181 -0.13635,1.31135 -0.203004,2.62787 -0.244581,3.94513 -0.01418,1.08069 -0.01382,2.16151 -0.02152,3.24228 -0.02433,1.39749 -0.01444,2.79517 -0.0099,4.19274 0.0069,1.41892 -0.158554,2.83101 -0.247006,4.24581 -0.07984,1.38592 -0.109358,2.77413 -0.130921,4.16199 -0.02669,2.43097 -0.05517,4.86187 -0.08025,7.29285 -0.0635,3.69617 -0.09285,7.39057 0.08556,11.08358 0.05045,2.86238 0.416597,5.68974 0.888242,8.50876 0.585342,2.45781 0.921555,4.94144 1.081163,7.45951 0.104029,2.34909 0.150788,4.70038 0.181438,7.05144 0.0091,1.61905 0.0131,3.23815 0.02001,4.85722 0.02202,1.07732 -0.02374,2.15117 0.111104,3.22205 0.192452,1.03297 0.189814,2.08393 0.257487,3.12853 0.121179,1.7785 0.337837,3.5477 0.488743,5.3237 0.04632,1.405 0.246925,2.7921 0.442389,4.1814 0.06735,1.6946 0.579724,3.011 1.419306,4.4714 1.575938,2.3442 3.640224,3.6332 6.064834,4.9534 2.864086,1.4703 5.991058,2.2874 9.088337,3.1004 3.264731,0.8978 6.61467,1.3509 9.981815,1.6235 3.651859,0.2526 7.314387,0.2436 10.972877,0.2478 3.02599,0 5.88225,-0.4262 8.76951,-1.3102 2.47706,-0.779 4.84955,-1.8325 7.14092,-3.046 3.85939,-2.1879 -2.23221,1.3071 -1.67137,0.9852 1.92634,-1.1086 3.85267,-2.2171 5.779,-3.3256 -0.89303,0.5147 -3.57475,2.0544 -2.6791,1.5442 7.09149,-4.0395 3.58843,-2.1095 7.14074,-4.0548 0.78295,-0.4204 1.58586,-0.8447 2.35915,-1.2847 0.30765,-0.175 1.22384,-0.7119 0.91552,-0.538 -1.2213,0.6887 -2.431,1.3979 -3.65457,2.0826 -0.20856,0.1167 0.40238,-0.2583 0.60904,-0.3784 1.66355,-0.9664 3.33419,-1.9205 5.00129,-2.8808 1.65577,-0.792 4.30475,-2.3075 -3.21812,1.8893 -0.13512,0.075 0.25271,-0.1786 0.37694,-0.2708 0.40371,-0.2996 0.43664,-0.3354 0.83366,-0.6623 1.11393,-0.9793 2.3659,-1.7764 3.5088,-2.7204 1.08293,-0.81 1.46498,-1.4139 1.7469,-2.7286 0.29655,-2.2545 0.22482,-4.5363 0.29636,-6.8045 0.0562,-2.42855 0.39182,-4.83812 0.72344,-7.24101 0.46884,-3.29566 0.76633,-6.60624 0.94403,-9.92924 0.0955,-4.34775 0.27679,-8.69236 0.4392,-13.03803 0.21396,-5.39788 0.17905,-10.80027 0.0663,-16.19974 0.0285,-2.7781 -0.17855,-5.54136 -0.46726,-8.30156 -0.46639,-3.37688 -0.65353,-6.77914 -0.91101,-10.17517 -0.26558,-2.82961 -0.37547,-5.66841 -0.45903,-8.50794 -0.0526,-2.22563 -0.0626,-4.45208 -0.0688,-6.67825 -0.0165,-1.72826 -0.0114,-3.45666 -0.0235,-5.18491 -0.0131,-0.98565 -0.0385,-1.97097 -0.0455,-2.95672 -0.0303,-0.0914 0.12204,-1.96176 -0.16597,-1.49872 -1.35562,1.30521 -0.19681,0.15212 3.84039,-2.05005 0.22223,-0.12122 -0.43079,0.266 -0.6443,0.402 -0.83856,0.53416 -1.64953,1.10389 -2.46106,1.67789 -2.58311,1.6605 -5.15561,3.45381 -8.02691,4.57255 -0.54643,0.2129 -1.1485,0.38044 -1.70961,0.54804 -2.29765,0.47491 -4.59268,0.95463 -6.88732,1.44373 -2.95165,0.73787 -5.99163,0.93373 -8.99672,1.33871 -2.71469,0.37223 -5.36154,1.09436 -8.04917,1.6088 -2.27523,0.34435 -4.563809,0.59835 -6.850627,0.85295 -2.301548,0.23096 -4.613092,0.32495 -6.924395,0.38508 -1.812411,0.0992 -3.596736,0.0382 -5.376272,-0.31938 -1.832818,-0.30138 -3.643476,-0.71961 -5.441638,-1.18463 -1.299875,-0.30333 -2.61647,-0.53822 -3.932199,-0.76486 -1.115941,-0.17235 -2.24723,-0.18961 -3.373816,-0.20929 -1.343465,-0.1373 -2.687775,-0.2506 -4.03714,-0.3075 -1.189058,-0.0421 -2.36575,-0.23538 -3.552667,-0.3233 -1.312221,-0.0812 -2.627715,-0.0893 -3.942024,-0.09 -1.072699,-0.0118 -2.162482,-0.12004 -3.2164,-0.32821 -0.764022,-0.15911 -1.546034,-0.23148 -2.229986,-0.63014 -0.503385,-0.43308 -0.717251,-1.00043 -0.639283,-1.65037 0.221182,-0.69637 0.915331,-1.09934 1.489201,-1.49166 2.212958,-1.55778 4.635168,-2.78676 6.995278,-4.1055 0.20647,-0.10203 0.416245,-0.19763 0.619408,-0.3061 0.226495,-0.12092 0.446114,-0.25431 0.668995,-0.38177 0.237066,-0.13557 0.948139,-0.5425 0.710846,-0.40733 -7.031527,4.00558 -3.752403,2.14148 -2.209541,1.16651 3.015932,-2.19934 5.721968,-3.27441 9.045837,-4.3736 1.587775,-0.42528 3.134324,-0.98101 4.701965,-1.47787 2.028959,-0.67981 4.109844,-1.15441 6.20858,-1.557 1.916465,-0.23584 3.820087,-0.53526 5.715965,-0.90216 1.942405,-0.37192 3.915834,-0.51778 5.889194,-0.58486 2.107155,-0.0518 4.215133,-0.0404 6.322729,-0.0455 2.03275,10e-4 4.0655,-7.3e-4 6.09824,0.007 2.26008,-5.3e-4 4.52013,0.0121 6.78022,0.0136 2.17218,10e-4 4.34432,-0.0109 6.51648,-0.0197 1.74707,-0.004 3.49414,-0.007 5.24121,-0.009 1.82656,0.0138 3.65314,0.005 5.47972,0.005 1.58738,0.0535 3.16192,-0.0362 4.73924,-0.20087 1.46377,-0.1344 2.93408,-0.14074 4.40257,-0.15507 1.59185,2.4e-4 3.18361,-0.0174 4.77542,-0.0238 1.07893,-0.12877 1.76517,0.44039 2.46149,1.16034 0.50247,0.55063 0.67643,1.2128 0.7623,1.93187 0.14242,1.03581 -0.25365,1.90926 -0.83476,2.73539 -0.80219,1.00512 -1.69639,1.93019 -2.52934,2.90895 -0.34138,0.38351 -0.68511,0.76472 -1.02354,1.15083 0,0 -4.85853,2.05029 -4.85853,2.05029 l 0,0 c 0.34447,-0.39386 0.67817,-0.79871 1.06095,-1.15697 0.82446,-0.98033 1.70364,-1.90878 2.53073,-2.88692 0.58534,-0.67229 1.05869,-1.41188 0.95198,-2.34284 -0.0546,-0.60425 -0.15599,-1.16741 -0.58641,-1.62916 -0.66235,-0.69434 -1.17148,-0.90974 -2.1631,-0.85001 -1.57883,-0.008 -3.15778,-0.0265 -4.73652,0.005 -1.4732,0.026 -2.94722,0.0711 -4.41444,0.21473 -1.57075,0.12738 -3.1411,0.15989 -4.71699,0.12488 -1.83118,5.5e-4 -3.66235,-0.009 -5.49351,0.005 -1.73912,-0.002 -3.47822,-0.005 -5.21733,-0.009 -2.15413,-0.009 -4.30826,-0.0207 -6.46241,-0.0196 -2.2716,0.001 -4.54316,0.014 -6.81476,0.0111 -2.0333,0.005 -4.066573,-0.002 -6.099871,-0.005 -2.106418,-0.006 -4.213668,-0.006 -6.319017,0.0695 -1.961688,0.0976 -3.923139,0.25005 -5.850442,0.6496 -1.893227,0.35305 -3.796514,0.61934 -5.701781,0.89444 -2.094005,0.41436 -4.166125,0.917 -6.18587,1.61591 -1.57958,0.51202 -3.144357,1.06934 -4.744311,1.5154 -0.733582,0.2393 -1.468163,0.47303 -2.187175,0.75432 -1.683125,0.65846 -4.936676,2.51537 2.076551,-1.4456 -2.845851,1.78129 -5.725456,3.51253 -8.688353,5.09314 -1.645578,0.92247 -4.415437,2.49127 3.094487,-1.83934 1.102911,-0.63599 -2.209096,1.26361 -1.089736,0.72173 -0.539726,0.36232 -1.118624,0.71022 -1.58759,1.1507 -0.259153,0.35935 -0.08279,0.76367 0.264209,1.00233 0.66516,0.28812 1.387709,0.37417 2.09145,0.52783 1.037888,0.14933 2.083577,0.2921 3.134163,0.28132 1.330629,0.0142 2.662741,0.0141 3.99097,0.10532 1.173334,0.11027 2.340754,0.29322 3.520207,0.32492 1.342466,0.0785 2.680312,0.20652 4.021736,0.29638 1.155362,0.0163 2.315357,0.0338 3.453023,0.26173 1.302527,0.26337 2.6146,0.48747 3.898405,0.83329 1.781877,0.47126 3.575368,0.89942 5.40057,1.16707 1.755941,0.29553 3.517805,0.30951 5.295555,0.24719 2.28851,-0.0425 4.578617,-0.12801 6.85395,-0.39198 2.27554,-0.27181 4.55659,-0.51479 6.81963,-0.87779 2.67192,-0.51951 5.31248,-1.20874 8.01781,-1.54644 3.00475,-0.37523 6.03246,-0.62914 8.9768,-1.37727 2.32619,-0.51675 4.66211,-0.99482 6.97483,-1.56745 0.64086,-0.20871 1.03718,-0.32185 1.65714,-0.58699 0.28909,-0.12364 1.12037,-0.56775 0.85372,-0.40113 -6.81587,4.25896 -3.14626,1.80682 -1.62767,0.91298 2.59462,-1.86986 5.08864,-3.4227 8.00532,-4.92603 0.13739,-0.0708 0.30867,0.0167 0.46301,0.0251 0.0867,0.0756 0.18914,0.13624 0.26004,0.22681 0.3899,0.4981 0.10622,1.28423 0.19061,1.85458 -0.007,1.00159 -0.0331,2.00275 -0.0472,3.00423 -0.0141,1.73753 -0.0127,3.47521 -0.0315,5.21274 -0.007,2.23278 -0.0191,4.46561 0.005,6.69835 0.037,2.84735 0.15199,5.69299 0.35455,8.53361 0.22562,3.38301 0.4049,6.77342 0.96633,10.12293 0.34004,2.79683 0.56593,5.59679 0.36971,8.41664 -0.14376,5.42546 -0.23205,10.85204 -0.2031,16.27971 -0.0319,4.32947 -0.21184,8.65329 -0.30607,12.98147 -0.10344,3.31097 -0.32819,6.60724 -0.77457,9.8917 -0.28058,2.39296 -0.62104,4.78353 -0.73128,7.19218 -0.0814,2.26644 0.009,4.53574 -0.13074,6.80044 -0.17623,1.3385 -0.43988,2.2587 -1.5966,3.0684 -0.38561,0.316 -0.75073,0.6574 -1.1475,0.9592 -0.7692,0.5852 -1.63218,1.0558 -2.33396,1.7292 -1.98015,1.8895 -4.5108,3.0779 -6.93584,4.3157 1.31107,-0.7627 2.61989,-1.5292 3.9332,-2.288 0.2174,-0.1256 -0.4288,0.2614 -0.64535,0.3884 -2.75566,1.6168 -5.48889,3.2732 -8.32786,4.7414 -0.4573,0.2499 -1.81378,1.0262 -1.37191,0.7498 0.89385,-0.559 3.64463,-2.1212 2.72903,-1.5985 -1.93166,1.1025 -3.85153,2.2256 -5.7773,3.3385 -0.90858,0.525 3.63479,-2.0994 2.72573,-1.5752 -6.23196,3.5938 -3.72068,2.1944 -6.93648,3.9734 -2.30488,1.1867 -4.69202,2.2071 -7.17941,2.9508 -2.86954,0.8088 -5.81731,1.1994 -8.804061,1.155 -3.658604,-0.025 -7.319241,-0.075 -10.972044,-0.2975 -3.396048,-0.2991 -6.778902,-0.738 -10.068632,-1.669 -3.127179,-0.8413 -6.284658,-1.6876 -9.174971,-3.1851 -0.920716,-0.4982 -1.729273,-0.9054 -2.596712,-1.4922 -1.43887,-0.9734 -2.678329,-2.239 -3.696913,-3.6397 -0.859107,-1.4027 -1.581609,-2.9113 -1.659425,-4.584 -0.150177,-1.4159 -0.317689,-2.8285 -0.349044,-4.254 -0.140434,-1.7681 -0.38441,-3.5237 -0.548585,-5.2894 -0.113374,-1.0274 -0.133543,-2.0634 -0.296442,-3.086 -0.137529,-1.09989 -0.124551,-2.20121 -0.08848,-3.30851 0.01241,-1.62789 0.02611,-3.25577 0.03598,-4.88368 0.02173,-2.35439 0.0439,-4.71085 -0.08879,-7.06278 -0.16704,-2.50074 -0.498501,-4.97716 -1.034506,-7.42785 -0.46231,-2.84639 -0.906854,-5.70295 -0.858321,-8.59646 -0.08612,-3.69464 -0.07059,-7.38952 -0.122057,-11.08474 -0.02642,-2.40541 -0.06034,-4.81071 -0.07594,-7.21622 -0.0083,-1.38906 -0.03442,-2.77986 0.06585,-4.16658 0.106253,-1.40462 0.287471,-2.80857 0.273218,-4.21839 0.0034,-1.39339 0.01149,-2.78689 -0.015,-4.18015 -0.0082,-1.0869 -0.01028,-2.1737 0.0247,-3.26027 0.03173,-1.33576 0.118636,-2.66856 0.266622,-3.9968 0.154727,-1.48901 0.184051,-2.98399 0.351405,-4.4717 0.165708,-1.3672 0.222077,-2.74627 0.477719,-4.10166 0.244894,-1.39893 0.480568,-2.8026 0.590658,-4.21952 0,0 4.771624,-2.34659 4.771624,-2.34659 z"
         id="path3486"
         style="fill:#cccccc" />
      <path
         inkscape:connector-curvature="0"
         d="m 138.60594,931.07635 c -8.4e-4,-0.97196 0.0183,-1.91008 0.26037,-2.85547 0.3613,-1.09777 0.87742,-2.13462 1.3785,-3.17321 0.58997,-1.3691 1.27215,-2.6951 1.89309,-4.05027 0.7156,-1.4268 1.57041,-2.77691 2.344,-4.17297 0.57961,-1.20098 1.51401,-2.14399 2.48158,-3.03654 2.69235,-2.0909 5.72738,-3.73151 8.83256,-5.129 2.04853,-0.84307 4.2244,-1.29084 6.41442,-1.5627 1.665,-0.26793 2.94374,0.20558 4.30581,1.12662 1.35179,0.87516 2.14923,1.86303 2.79598,3.32298 0.72616,1.9828 0.80512,4.10734 0.87984,6.19467 0.059,2.67585 0.0293,5.353 0.0212,8.02932 -0.0159,2.92153 -0.0213,5.84298 -0.006,8.76451 0.0991,2.60631 -0.09,5.20251 -0.31154,7.7967 -0.2211,2.55905 -0.31385,5.12614 -0.35947,7.6935 -0.0622,2.64525 -0.18855,5.29133 -0.3452,7.93292 -0.0872,2.4335 -0.37324,4.83955 -0.80796,7.23285 -0.38835,1.93736 -1.02018,3.81023 -1.46825,5.734 -0.30685,1.82664 -0.70131,3.63477 -1.13026,5.43599 -0.48501,1.88268 -1.20977,3.69609 -1.86124,5.5263 -0.60472,1.51601 -1.15815,3.05707 -1.86956,4.52732 -0.57355,1.02894 -1.21746,2.02931 -2.18204,2.72603 -2.90502,1.9978 -4.06403,2.92166 -6.86474,2.9443 -1.06526,0.0391 -1.88588,-0.64881 -2.61306,-1.34132 -0.77244,-0.80712 -1.64937,-1.49051 -2.34719,-2.366 -0.70687,-1.16148 -1.66332,-2.1289 -2.49536,-3.19564 -0.71956,-1.03734 -1.30089,-2.16033 -1.95818,-3.23719 -1.04683,-2.17961 -1.53418,-4.59839 -2.05338,-6.94728 -0.12534,-0.63871 -0.25067,-1.27741 -0.376,-1.91612 0,0 4.32042,-2.31484 4.32042,-2.31484 l 0,0 c 0.13937,0.62619 0.27874,1.25238 0.4181,1.87857 0.57502,2.26456 1.14777,4.57845 2.20355,6.67446 0.66687,1.0523 1.24834,2.15251 1.93563,3.19028 0.81489,1.07458 1.77305,2.03426 2.51397,3.16665 0.70169,0.83629 1.54059,1.53034 2.30974,2.30231 0.70334,0.62708 1.43644,1.09111 2.41975,0.9798 2.34115,-0.11232 4.69104,-1.84742 -2.33579,2.08034 1.15462,-0.56061 1.66698,-1.42365 2.35135,-2.4721 0.746,-1.466 1.34422,-2.99925 1.98446,-4.51372 0.64789,-1.79889 1.30781,-3.60301 1.81665,-5.44542 0.45018,-1.80631 0.92568,-3.60892 1.19112,-5.45484 0.41767,-1.93133 1.01593,-3.80624 1.48284,-5.72344 0.48306,-2.38146 0.81077,-4.77348 0.89745,-7.20606 0.1856,-2.62794 0.26655,-5.26506 0.32709,-7.89832 0.0575,-2.58361 0.15198,-5.16642 0.38483,-7.7412 0.20211,-2.58256 0.37699,-5.16722 0.32933,-7.75992 0.0185,-2.92317 0.0191,-5.8463 0.0152,-8.76952 6e-4,-2.66064 0.006,-5.32175 -0.069,-7.98161 -0.0859,-2.01156 -0.15526,-4.0664 -0.86731,-5.97408 -0.64869,-1.376 -1.36985,-2.2245 -2.65525,-3.0603 -1.38259,-0.83364 -2.4534,-1.10298 -4.0702,-0.8502 -2.15705,0.28325 -4.2947,0.74512 -6.28221,1.65989 -1.67223,0.79486 -5.31683,2.91679 1.77887,-1.18755 0.41938,-0.24258 -0.82373,0.51095 -1.2228,0.78566 -0.1784,0.1228 -0.35834,0.24333 -0.53751,0.36499 -0.96226,0.85857 -1.95954,1.7275 -2.56622,2.88645 -0.77408,1.39873 -1.61252,2.75624 -2.39686,4.14795 -0.58784,1.35271 -1.26368,2.66584 -1.81844,4.0311 -0.48563,1.02614 -1.00079,2.03864 -1.42286,3.09309 -0.0969,0.31937 -0.23284,0.70327 -0.26529,1.04219 -0.0518,0.54077 0.0441,1.09876 0.03,1.64074 0,0 -4.75805,2.42435 -4.75805,2.42435 z"
         id="path3488"
         style="fill:#cccccc" />
      <path
         inkscape:connector-curvature="0"
         d="m 76.486217,936.94817 c 0.07126,1.37939 0.371838,2.72774 0.587959,4.08789 0.270051,1.68456 0.339329,3.3891 0.38659,5.09144 0.03079,1.41638 0.04839,2.83314 0.03976,4.24984 -0.0056,1.47449 -0.009,2.94894 -0.02196,4.42339 -0.0073,1.64662 0.0039,3.29324 0.0014,4.93985 0.0076,1.69543 -0.0049,3.39076 -0.01682,5.08613 -0.05223,2.60733 -0.0649,5.21243 0.04412,7.81815 0.158083,1.64818 0.122754,3.31072 0.273803,4.95882 0.143775,1.56872 0.2499,1.93094 0.54398,3.54196 1.040862,4.40208 2.144947,8.78638 3.046815,13.22036 0.555947,2.98245 0.854601,6.004 1.110492,9.0243 0.07668,0.9977 0.08253,1.9981 0.107722,2.9977 -0.0015,0.097 -0.003,0.1946 -0.0044,0.292 0,0 -4.743575,2.4098 -4.743575,2.4098 l 0,0 c 8.54e-4,-0.097 0.0017,-0.1943 0.0026,-0.2915 0.05022,-1.0128 0.05507,-2.0274 0.04737,-3.0412 -0.03762,-3.0502 -0.274487,-6.09811 -0.800643,-9.10541 -0.825939,-4.44513 -1.898326,-8.83252 -3.088373,-13.19349 -0.1416,-0.63156 -0.301213,-1.25936 -0.4248,-1.89469 -0.425101,-2.18536 -0.501401,-4.39655 -0.54462,-6.61567 -0.107555,-2.59353 -0.148364,-5.1865 -0.160716,-7.78225 -0.01201,-1.68964 -0.02445,-3.37926 -0.01689,-5.06897 -0.0025,-1.64736 0.0087,-3.29474 0.0026,-4.94213 -0.01168,-1.46871 -0.0127,-2.9374 -0.01297,-4.40615 -0.0047,-1.41871 0.02069,-2.83751 0.0012,-4.2562 -0.03226,-1.68149 -0.09258,-3.36657 -0.345405,-5.03195 -0.224616,-1.33531 -0.536695,-2.65342 -0.723408,-3.99474 0,0 4.708316,-2.51728 4.708316,-2.51728 z"
         id="path3490"
         style="fill:#cccccc" />
      <path
         inkscape:connector-curvature="0"
         d="m 100.91488,929.53288 c -0.1211,2.16556 -0.1078,4.3364 -0.11613,6.50463 -0.0462,2.00177 0.0448,4.00793 -0.0736,6.00814 -0.0613,1.03635 -0.23016,2.47904 -0.33985,3.49762 -0.492878,4.4318 -0.646183,8.89017 -0.705918,13.3458 -0.08531,3.63209 -0.238211,7.26218 -0.308578,10.89462 -0.04598,3.5031 -0.06625,7.00669 -0.06303,10.5101 0.04448,3.55974 -0.01507,7.11943 -0.0031,10.67928 0.103003,4.57226 0.404946,9.13663 0.602032,13.70513 0.09245,2.3614 0.174114,4.7232 0.244064,7.0853 0.0356,0.8822 0.0436,1.7643 0.0331,2.647 -0.003,0.5793 -0.002,0.2903 -0.002,0.8668 0,0 -4.709218,2.3989 -4.709218,2.3989 l 0,0 c 0.0011,-0.5767 0.001,-0.2879 5.4e-5,-0.8662 -0.0077,-0.8935 0.0077,-1.7862 0.03708,-2.6793 0.04972,-2.4022 0.06886,-4.8051 0.02492,-7.2077 -0.08775,-4.5841 -0.245726,-9.16628 -0.541382,-13.74225 -0.131188,-3.54527 -0.124865,-7.0944 -0.09278,-10.64177 0.0089,-3.50604 -0.008,-7.01226 0.05825,-10.51792 0.07014,-3.65225 0.208547,-7.30033 0.412034,-10.94783 0.12381,-4.4476 0.204691,-8.90079 0.599829,-13.33497 0.102752,-1.14755 0.245174,-2.2922 0.309467,-3.44255 0.110909,-1.9844 -0.02124,-3.97661 0.01244,-5.96213 -0.0082,-2.12874 0.0072,-4.26039 -0.116131,-6.38629 0,0 4.738537,-2.41441 4.738537,-2.41441 z"
         id="path3492"
         style="fill:#cccccc" />
      <path
         inkscape:connector-curvature="0"
         d="m 124.29249,933.48909 c -0.13608,2.62147 -0.15366,5.24752 -0.17924,7.87187 0.009,4.39442 -0.0545,8.78841 -0.0769,13.18266 -0.0782,5.7605 -0.0277,11.52012 0.32632,17.27082 0.41944,4.19356 0.65961,8.39497 0.73474,12.60786 0.005,3.9523 0.13393,7.90449 0.0935,11.85668 -0.11886,1.78983 -0.16118,3.60363 -0.52751,5.36532 -0.1443,0.5457 -0.21877,1.1071 -0.38358,1.6471 0,0 -4.8386,2.2404 -4.8386,2.2404 l 0,0 c 0.25517,-0.5123 0.31023,-1.0631 0.47072,-1.61 0.50392,-1.7522 0.65234,-3.5813 0.82933,-5.39042 0.16862,-3.9605 0.0944,-7.92911 0.0288,-11.89138 -0.12314,-4.22949 -0.33225,-8.45461 -0.56206,-12.6796 -0.28342,-5.75011 -0.40765,-11.50627 -0.39781,-17.26343 -0.0225,-4.36812 -0.086,-8.73597 -0.0769,-13.10425 -0.0252,-2.56345 -0.0407,-5.12883 -0.17924,-7.68922 0,0 4.73854,-2.41441 4.73854,-2.41441 z"
         id="path3494"
         style="fill:#cccccc" />
      <path
         transform="translate(0,860.36216)"
         inkscape:connector-curvature="0"
         id="path3512"
         d="m 91.331583,164.15451 c -8.213392,-0.85681 -16.470969,-3.42982 -20.595053,-6.41729 -1.843028,-1.33509 -3.561135,-3.62904 -4.02998,-5.38068 -0.694391,-2.5943 -1.509629,-13.04648 -1.798019,-23.05244 -0.198946,-6.90259 -0.477043,-11.07634 -0.851522,-12.77985 -0.942998,-4.28971 -1.318557,-9.599 -1.305677,-18.458371 0.02475,-17.020934 0.939104,-37.171014 1.745546,-38.467289 0.321458,-0.516712 11.823645,0.474171 15.325729,1.320271 5.498792,1.328503 8.058489,1.596257 12.767312,1.335513 5.342823,-0.295851 10.774121,-0.989369 15.465651,-1.974793 1.8792,-0.394714 4.95425,-0.90114 6.83345,-1.12539 5.38731,-0.642884 14.44653,-2.696353 16.51127,-3.742639 1.02031,-0.517026 2.73986,-1.506022 3.82124,-2.19777 l 1.96613,-1.257722 7e-5,9.092354 c 7e-5,8.320834 0.55599,18.402933 1.44333,26.175991 0.81538,7.142698 0.22222,36.766835 -0.91096,45.496425 -0.30814,2.37373 -0.6916,6.90923 -0.85213,10.0789 -0.17916,3.53731 -0.467,6.03753 -0.7453,6.47379 -0.9158,1.43559 -5.8283,4.86845 -11.81678,8.25757 -10.80658,6.1159 -13.97831,7.03724 -23.98292,6.96669 -3.362778,-0.0237 -7.408902,-0.17818 -8.991387,-0.34327 z m 8.59134,-18.66591 c -0.447609,-13.36237 -0.300791,-49.407084 0.225607,-55.386951 0.49195,-5.588596 0.90402,-20.86002 0.56287,-20.86002 -0.12601,0 -1.184015,0.482034 -2.351123,1.071186 l -2.122008,1.071187 -0.147384,7.65046 c -0.08106,4.207753 -0.431927,13.800569 -0.779701,21.317368 -0.632395,13.6686 -0.629319,19.94115 0.02322,47.3578 l 0.228344,9.59398 2.339718,-1.14207 2.339724,-1.14207 -0.31927,-9.53087 z m -19.401053,2.05791 2.137887,-1.15877 -0.09086,-2.51759 c -0.155377,-4.30516 -1.017379,-9.81901 -2.558303,-16.36433 -0.814963,-3.46168 -1.654395,-7.18412 -1.865405,-8.27207 -0.214025,-1.10351 -0.511694,-10.24709 -0.673244,-20.680196 -0.272321,-17.586879 -0.509256,-22.057962 -1.158061,-21.853199 -0.551577,0.174078 -4.583525,2.266264 -4.583525,2.378401 0,0.06384 0.241814,1.720421 0.537363,3.681292 0.406981,2.700177 0.539428,7.055794 0.545873,17.951442 0.0095,16.10158 0.203529,18.85653 1.75387,24.90576 1.95663,7.63453 2.91067,13.14385 3.153731,18.21194 0.129153,2.69297 0.331116,4.89176 0.448807,4.8862 0.117691,-0.006 1.176032,-0.53156 2.351869,-1.16888 z m 41.70512,-3.55984 2.31641,-1.14227 0.44014,-3.08368 c 0.4866,-3.40922 0.24994,-20.73067 -0.37137,-27.1806 -0.19054,-1.97811 -0.35222,-11.64834 -0.35928,-21.489418 -0.007,-9.841074 -0.0984,-17.892862 -0.20291,-17.892862 -0.10455,0 -1.15654,0.487865 -2.33776,1.084144 l -2.14768,1.084143 0.0183,11.234058 c 0.01,6.178733 0.17212,15.442025 0.36014,20.585105 0.9126,24.96297 0.8667,31.71089 -0.25138,36.9546 -0.11599,0.54398 -0.11416,0.98905 0.004,0.98905 0.11822,0 1.25733,-0.51402 2.53135,-1.14227 l 0,0 z"
         style="fill:#ffff00" />
      <path
         inkscape:connector-curvature="0"
         id="path3514"
         d="m 56.106262,914.61409 c 0,1.30901 -0.189555,1.77883 0.359655,2.87725 0.07582,0.15164 0.26561,0.21858 0.359656,0.35965 0.148699,0.22305 0.210956,0.49627 0.359655,0.71931 0.460965,0.69145 0.618002,0.0279 1.078967,0.71932 0.349413,0.52411 0.224532,0.74911 0.719311,1.07896 0.223049,0.1487 0.529756,0.1701 0.719311,0.35966 0.438054,0.43805 0.168471,0.80354 0.719311,1.07896 0.107229,0.0536 0.252427,-0.0536 0.359656,0 0.151644,0.0758 0.208011,0.28384 0.359655,0.35966 0.04014,0.0201 1.758135,0.0201 1.798278,0 0.151644,-0.0758 0.208011,-0.28383 0.359655,-0.35966 0.496094,-0.24804 0.321702,0.43557 0.719311,-0.35965 0.05362,-0.10723 -0.08477,-0.27488 0,-0.35966 0.08477,-0.0848 0.245923,0.0379 0.359656,0 0.254315,-0.0848 0.464996,-0.27488 0.719311,-0.35965 0.341199,-0.11374 0.730049,0.0872 1.078966,0 0.260068,-0.065 0.464997,-0.27489 0.719312,-0.35966 0.125079,-0.0417 1.706523,-0.0229 1.798277,0 0.260068,0.065 0.496262,0.21096 0.719311,0.35966 0.141069,0.094 0.218587,0.26561 0.359656,0.35965 0.223049,0.1487 0.529756,0.1701 0.719311,0.35966 0.02305,0.0231 0.674648,1.37163 0.719311,1.43862 0.188091,0.28214 0.53122,0.43718 0.719311,0.71931 0.148699,0.22305 0.210956,0.49626 0.359655,0.71931 0.09405,0.14107 0.239771,0.23977 0.359656,0.35966 0.359655,0.35965 0.719311,0.71931 1.078966,1.07896 0.119886,0.11989 0.306042,0.19882 0.359656,0.35966 0.07582,0.22747 -0.07582,0.49185 0,0.71931 0.05361,0.16085 0.23977,0.23977 0.359656,0.35966 0.119885,0.23977 0.294638,0.45924 0.359655,0.71931 0.311434,1.24574 -0.455423,0.216 0.359656,1.43862 0.119885,0.11989 0.23977,0.23977 0.359655,0.35966 0.119885,0 0.274884,-0.0848 0.359656,0 0.189555,0.18955 0.1701,0.52975 0.359655,0.71931 0.189555,0.18955 0.529756,0.1701 0.719311,0.35965 0.305649,0.30565 0.413663,0.77332 0.719311,1.07897 0.239771,0.23977 1.62271,0.6842 1.798278,0.71931 0.235114,0.047 0.4867,-0.0581 0.719311,0 0.260067,0.065 0.464996,0.27488 0.719311,0.35966 0.113733,0.0379 0.245922,-0.0379 0.359656,0 0.508629,0.16954 0.918487,0.58927 1.438622,0.71931 0.232611,0.0581 0.47954,0 0.719311,0 0.23977,0 0.47954,0 0.719311,0 0.719311,0 1.438622,0 2.157933,0 0.23977,0 0.482803,0.0394 0.719311,0 0.487574,-0.0813 0.963341,-0.22386 1.438622,-0.35966 2.59343,-0.74098 -0.255958,0.15358 1.798278,-1.07897 0.325084,-0.19505 0.753882,-0.1646 1.078966,-0.35965 0.581529,-0.34892 0.896084,-1.03172 1.438622,-1.43862 0.214457,-0.16085 0.496262,-0.21096 0.719311,-0.35966 0.141069,-0.0941 0.214274,-0.27242 0.359656,-0.35965 0.687577,-0.41255 1.470356,-0.66642 2.157933,-1.07897 2.933789,-1.76027 -0.460398,0.25538 1.798278,-1.43862 0.214457,-0.16084 0.464996,-0.27489 0.719311,-0.35966 0.113733,-0.0379 0.274884,0.0848 0.359655,0 0.08477,-0.0848 -0.0665,-0.2599 0,-0.35965 0.188092,-0.28214 0.515859,-0.44804 0.719311,-0.71932 0.321686,-0.42891 0.39763,-1.0097 0.71931,-1.43862 0.20345,-0.27127 0.51586,-0.44804 0.71931,-0.71931 0.16085,-0.21445 0.1701,-0.52975 0.35966,-0.71931 0.0848,-0.0848 0.27488,0.0848 0.35965,0 0.18956,-0.18955 0.1701,-0.52976 0.35966,-0.71931 0.0848,-0.0848 0.2599,0.0665 0.35965,0 0.28214,-0.18809 0.43718,-0.53122 0.71932,-0.71931 0.0998,-0.0665 0.27488,0.0848 0.35965,0 0.0848,-0.0848 -0.0848,-0.27488 0,-0.35966 0.0848,-0.0848 0.25243,0.0536 0.35966,0 0.15164,-0.0758 0.20801,-0.28383 0.35965,-0.35965 0.10723,-0.0536 0.25243,0.0536 0.35966,0 0.15164,-0.0758 0.19881,-0.30604 0.35965,-0.35966 0.3412,-0.11373 0.71931,0 1.07897,0 0.23977,0 0.47954,0 0.71931,0 0.23977,0 0.49669,-0.089 0.71931,0 0.40134,0.16054 0.70832,0.49692 1.07897,0.71931 0.22987,0.13792 0.49626,0.21096 0.71931,0.35966 0.49875,0.3325 0.92462,0.77056 1.43862,1.07897 0.1028,0.0617 0.25243,-0.0536 0.35966,0 0.30457,0.15228 0.67064,0.8356 0.71931,1.07896 0,2.04536 -0.16084,0.23678 0.35965,1.79828 0.0379,0.11373 0,0.23977 0,0.35965 0,0.0855 -0.0403,1.35802 0,1.43863 0.0758,0.15164 0.23977,0.23977 0.35966,0.35965 0.11988,0.11989 0.21859,0.26561 0.35965,0.35966 0.22305,0.1487 0.47955,0.23977 0.71932,0.35965 0.23977,0.11989 0.45924,0.29464 0.71931,0.35966 0.59821,0.14955 2.02472,-0.19715 2.51759,0 0.31483,0.12593 0.47954,0.47954 0.71931,0.71931 0.35965,0.11989 0.71117,0.26771 1.07896,0.35966 0.11631,0.0291 0.23977,0 0.35966,0 0.23977,0 0.47954,0 0.71931,0 0.95908,0 1.91816,0 2.87724,0 0.23977,0 0.4842,-0.047 0.71931,0 0.37175,0.0743 0.70722,0.2853 1.07897,0.35965 0.23512,0.047 0.47954,0 0.71931,0 0.35966,0.11989 0.71118,0.26771 1.07897,0.35966 0.23261,0.0581 0.51981,-0.133 0.71931,0 0.28214,0.18809 0.41602,0.56766 0.71931,0.71931 0.21446,0.10723 0.49185,-0.0758 0.71931,0 0.32169,0.10723 0.39763,0.61208 0.71931,0.71931 0.22747,0.0758 0.4842,-0.047 0.71931,0 0.37175,0.0743 0.71118,0.26771 1.07897,0.35966 0.36562,0.0914 1.94678,-0.10558 2.15793,0 0.15165,0.0758 0.23977,0.23977 0.35966,0.35965 0.11988,0.11989 0.26561,0.21859 0.35966,0.35966 0.29739,0.44609 0.42191,0.99252 0.71931,1.43862 0.094,0.14107 0.23977,0.23977 0.35965,0.35965 0.11989,0.11989 0.19881,0.30605 0.35966,0.35966 0.22746,0.0758 0.47954,0 0.71931,0 0.95908,0 1.91816,0 2.87724,0 0.11989,0 0.23977,0 0.35966,0 0.11988,0 0.27488,0.0848 0.35965,0 0.0848,-0.0848 -0.0379,-0.24592 0,-0.35966 0.0848,-0.25431 0.29464,-0.45924 0.35966,-0.71931 0.14538,-0.58153 -0.11756,-1.21049 0,-1.79827 0.0526,-0.26287 0.27488,-0.465 0.35965,-0.71932 0.0758,-0.22746 0,-0.47954 0,-0.71931 0,-0.29445 0.0777,-1.56525 0,-1.79827 -0.0848,-0.25432 -0.26009,-0.47042 -0.35965,-0.71932 -0.1408,-0.35199 -0.26771,-0.71117 -0.35966,-1.07896 -0.0291,-0.11631 0.0536,-0.25243 0,-0.35966 -0.0758,-0.15164 -0.28383,-0.20801 -0.35965,-0.35965 -0.0473,-0.0946 0,-1.25055 0,-1.43863 0,-0.95908 0,-1.91816 0,-2.87724 0,-1.55851 0,-3.11701 0,-4.67552 0,-0.3765 -0.0731,-1.86546 0,-2.15793 0.065,-0.26007 0.29464,-0.45925 0.35965,-0.71932 0.0582,-0.23261 -0.0758,-0.49184 0,-0.71931 0.0536,-0.16084 0.30604,-0.19881 0.35966,-0.35965 0.0758,-0.22747 0,-0.47954 0,-0.71931 0,-0.11989 -0.0536,-0.25243 0,-0.35966 0.0758,-0.15164 0.28383,-0.20801 0.35965,-0.35965 0.0536,-0.10723 -0.0536,-0.25243 0,-0.35966 0.0758,-0.15164 0.30605,-0.19881 0.35966,-0.35966 0.11917,-0.35752 -0.1528,-1.49267 0,-1.79827 0.0536,-0.10723 0.27488,0.0848 0.35966,0 0.0984,-0.0984 -0.0976,-1.24352 0,-1.43862 0.0758,-0.15165 0.30604,-0.19882 0.35965,-0.35966 0.12602,-0.37807 -0.0922,-1.78918 0,-2.15793 0.0411,-0.16448 0.30604,-0.19882 0.35966,-0.35966 0,-1.63725 -0.16955,-0.0206 0.35965,-1.07897 0.14386,-0.28772 -0.14386,-0.79124 0,-1.07896 0.0758,-0.15165 0.28384,-0.20801 0.35966,-0.35966 0.0246,-0.0491 0.0246,-2.10881 0,-2.15793 -0.0758,-0.15164 -0.28384,-0.20801 -0.35966,-0.35966 -0.0536,-0.10722 0.0848,-0.27488 0,-0.35965 -0.0848,-0.0848 -0.27488,0.0848 -0.35965,0 -0.0848,-0.0848 0.0848,-0.27489 0,-0.35966 -0.0848,-0.0848 -0.25243,0.0536 -0.35966,0 -0.15164,-0.0758 -0.21859,-0.26561 -0.35965,-0.35965 -0.22305,-0.1487 -0.49627,-0.21096 -0.71932,-0.35966 -0.14106,-0.0941 -0.20801,-0.28383 -0.35965,-0.35965 -0.10723,-0.0536 -0.25243,0.0536 -0.35966,0 -1.646,-0.823 1.52617,0.14906 -1.07896,-0.71931 -0.24739,-0.0825 -0.86677,0.1061 -1.07897,0 -0.30329,-0.15165 -0.39763,-0.61209 -0.71931,-0.71932 -0.3412,-0.11373 -0.73777,0.11374 -1.07897,0 -0.25431,-0.0848 -0.46499,-0.27488 -0.71931,-0.35965 -0.22746,-0.0758 -0.50485,0.10723 -0.71931,0 -0.15164,-0.0758 -0.20801,-0.28384 -0.35965,-0.35966 -0.10723,-0.0536 -0.23978,0 -0.35966,0 -0.23977,0 -0.49185,0.0758 -0.71931,0 -0.16084,-0.0536 -0.21859,-0.26561 -0.35966,-0.35965 -0.22305,-0.1487 -0.46499,-0.27489 -0.71931,-0.35966 -0.22746,-0.0758 -0.47954,0 -0.71931,0 -0.71931,0 -1.43862,0 -2.15793,0 -1.91817,0 -3.83633,0 -5.75449,0 -1.19885,0 -2.3977,0 -3.59656,0 -0.23626,0 -1.35404,-0.0423 -1.43862,0 -0.10723,0.0536 0.0848,0.27489 0,0.35966 -0.0848,0.0848 -0.23977,0 -0.35965,0 -0.23977,0 -0.47954,0 -0.71931,0 -1.31874,0 -2.63748,0 -3.95622,0 -4.55563,0 -9.11127,0 -13.666905,0 -1.438622,0 -2.877244,0 -4.315867,0 -0.376501,0 -1.86546,-0.0731 -2.157933,0 -0.260067,0.065 -0.459243,0.29464 -0.719311,0.35965 -0.356523,0.0891 -1.479805,-0.10615 -1.798277,0 -0.50863,0.16955 -0.918488,0.58928 -1.438622,0.71931 -0.232612,0.0582 -0.491845,-0.0758 -0.719312,0 -0.160842,0.0536 -0.208011,0.28384 -0.359655,0.35966 -0.214457,0.10723 -0.504854,-0.10723 -0.719311,0 -0.151644,0.0758 -0.208012,0.28383 -0.359656,0.35966 -0.190703,0.0954 -1.553603,-0.0816 -1.798277,0 -0.321686,0.10722 -0.416023,0.56766 -0.719311,0.71931 -0.214457,0.10722 -0.504854,-0.10723 -0.719311,0 -0.151644,0.0758 -0.208012,0.28383 -0.359656,0.35965 -0.222642,0.11132 -1.922283,-0.11782 -2.157933,0 -0.151644,0.0758 -0.208011,0.28384 -0.359656,0.35966 -0.107228,0.0536 -0.245922,-0.0379 -0.359655,0 -0.254315,0.0848 -0.464996,0.27488 -0.719311,0.35965 -0.227466,0.0758 -0.504854,-0.10723 -0.719311,0 -0.151644,0.0758 -0.208012,0.28384 -0.359656,0.35966 -0.214457,0.10723 -0.504854,-0.10723 -0.719311,0 -0.151644,0.0758 -0.198812,0.30604 -0.359655,0.35965 -0.244674,0.0816 -1.607574,-0.0954 -1.798278,0 -0.151644,0.0758 -0.208011,0.28384 -0.359655,0.35966 -0.107229,0.0536 -0.239771,0 -0.359656,0 -0.23977,0 -0.491845,-0.0758 -0.719311,0 -0.243541,0.0812 -0.80423,0.9416 -1.078967,1.07897 -0.107228,0.0536 -0.252427,-0.0536 -0.359655,0 -0.151644,0.0758 -0.208012,0.28383 -0.359656,0.35965 -0.107228,0.0536 -0.274884,-0.0848 -0.359655,0 -0.08477,0.0848 0.08477,0.27489 0,0.35966 -0.08477,0.0848 -0.23977,0 -0.359656,0 -0.23977,0 -0.504854,-0.10723 -0.719311,0 -0.107228,0.0536 0.08477,0.27488 0,0.35965 -0.08477,0.0848 -0.274884,-0.0848 -0.359655,0 -0.08477,0.0848 0.08477,0.27489 0,0.35966 -0.169543,0.16954 -0.549768,-0.16955 -0.719311,0 -0.08477,0.0848 0.107228,0.30604 0,0.35965 -0.214457,0.10723 -0.4867,-0.0582 -0.719311,0 -1.736757,0.43419 0.01783,0.17092 -1.078967,0.71931 -0.107228,0.0536 -0.274884,-0.0848 -0.359655,0 -0.08477,0.0848 0.08477,0.27489 0,0.35966 -0.07353,0.0735 -0.936367,-0.0713 -1.078967,0 -0.151644,0.0758 -0.208011,0.28383 -0.359656,0.35966 -0.107228,0.0536 -0.252426,-0.0536 -0.359655,0 -0.151644,0.0758 -0.208011,0.28383 -0.359656,0.35965 -0.214457,0.10723 -0.504853,-0.10723 -0.719311,0 -0.303288,0.15165 -0.416022,0.56767 -0.719311,0.71931 -0.107228,0.0536 -0.274884,-0.0848 -0.359655,0 -0.08477,0.0848 0.08477,0.27489 0,0.35966 -0.189555,0.18955 -0.529756,0.1701 -0.719311,0.35965 -0.08477,0.0848 0.08477,0.27489 0,0.35966 -0.08477,0.0848 -0.252427,-0.0536 -0.359656,0 -0.303288,0.15164 -0.416023,0.56767 -0.719311,0.71931 -0.107228,0.0536 -0.252427,-0.0536 -0.359655,0 -0.151644,0.0758 -0.208012,0.28383 -0.359656,0.35966 -0.107228,0.0536 -0.274884,-0.0848 -0.359655,0 -0.08477,0.0848 0.08477,0.27488 0,0.35965 -0.08477,0.0848 -0.252427,-0.0536 -0.359656,0 -0.303288,0.15164 -0.416023,0.56767 -0.719311,0.71931 -0.107229,0.0536 -0.252427,-0.0536 -0.359655,0 -0.151645,0.0758 -0.208012,0.28384 -0.359656,0.35966 -0.107229,0.0536 -0.274884,-0.0848 -0.359656,0 -0.08477,0.0848 0.05362,0.25242 0,0.35965 -0.151644,0.30329 -0.567666,0.41603 -0.719311,0.71931 -0.05361,0.10723 0.05362,0.25243 0,0.35966 -0.07582,0.15164 -0.283833,0.20801 -0.359655,0.35965 -0.05361,0.10723 0.08477,0.27489 0,0.35966 -0.08477,0.0848 -0.274884,-0.0848 -0.359656,0 -0.169543,0.16954 0.169544,0.54977 0,0.71931 -0.74414,0.74414 0.02909,-1.13714 -0.719311,0.35966 -0.107228,0.21445 0.05815,0.4867 0,0.71931 -0.09195,0.36779 -0.306041,0.70366 -0.359655,1.07896 -0.08477,0.59341 0,1.19886 0,1.79828 0,0.21494 0.08477,0.71931 -0.359656,0.71931 -0.119885,0 0,-0.23977 0,-0.35965 0,-0.11989 0,-0.23977 0,-0.35966 0,-0.11988 0,-0.47954 0,-0.35965 0,0.23977 -0.05815,0.95192 0,0.71931 0.176865,-0.70746 0.239771,-1.43862 0.359656,-2.15794 z"
         style="fill:#ffffff;fill-rule:evenodd;stroke:#000000;stroke-width:1px;stroke-linecap:butt;stroke-linejoin:miter;stroke-opacity:1" />
    </g>
  </g>
</svg>
